# xmcd
#
# Track frame offsets: 
#        150
#        20324
#        34829
#        54919
#        67406
#        85033
#        100415
#        121778
#        143322
#        162935
#        175784
#        189174
#        209176
#        225657
#        236788
#        271123
#        285176
#
# Disc length: 3984 seconds
#
# Revision: 0
# Processed by: cddbd v1.5.2PL0 Copyright (c) Steve Scherf et al.
# Submitted via: ExactAudioCopy v0.99pb4
#
DISCID=df0f8e11
DTITLE=Various Artist - Delmark 55
DYEAR=2008
DGENRE=Blues
TTITLE0=Junior Wells - Little By Little
TTITLE1=Sleepy John Estes - I Ain't Gonna Sell It
TTITLE2=Detroit Jr. - Call My Job
TTITLE3=J.B. Hutto - Evening Train
TTITLE4=Barkin' Bill - Suffering Mind
TTITLE5=Big Joe Williams - Coffeehouse Blues
TTITLE6=Syl Johnson - Keep On Loving Me
TTITLE7=Willie Kent - Do You Love Me?
TTITLE8=Bonnie Lee - Baby What You Want Me To Do
TTITLE9=Floyd McDaniel - Blue Mood
TTITLE10=Roosevelt Sykes - Fine and Brown (alternate)
TTITLE11=Steve Freund - I'll Be Your Mule
TTITLE12=Otis Rush - Please Love Me
TTITLE13=Speckled Red - The Right String But The Wrong Yo-Yo
TTITLE14=Jimmy Dawkins - Feel So Bad
TTITLE15=Shirley Johnson - Not For The Love Of You
TTITLE16=Magic Sam - I Don't Want No Woman
EXTD=
EXTT0=
EXTT1=
EXTT2=
EXTT3=
EXTT4=
EXTT5=
EXTT6=
EXTT7=
EXTT8=
EXTT9=
EXTT10=
EXTT11=
EXTT12=
EXTT13=
EXTT14=
EXTT15=
EXTT16=
PLAYORDER=
